<?xml version="1.0" encoding="UTF-8"?>
<svg id="Layer_1" data-name="Layer 1" xmlns="http://www.w3.org/2000/svg" viewBox="0 0 472.8718 512">
  <defs>
    <style>
      .cls-1 {
        fill: #7ba257;
      }

      .cls-2 {
        fill: #0e2b43;
      }
    </style>
  </defs>
  <path class="cls-1" d="M365.8272,314.2148l-3.6111,13.6109c-31.2299,87.1708-139.19,127.2793-218.3297,76.6654,44.3387-1.6727,88.4221-13.2391,129.1645-30.2773,33.7411-14.1103,68.0186-32.7432,92.7762-59.999ZM338.8832,208.9388c-30.8135,54.6625-162.3324,110.3092-223.0518,113.6092-12.6092.6853-25.622.1667-37.7771-3.3333-1.5824.4005,3.1141,13.1032,4.1666,14.1664,3.1144,3.1463,30.5538,3.7642,36.3883,3.6111,64.5135-1.6932,176.3167-42.8489,216.9408-94.7206,3.9863-5.0901,15.7604-24.2476,16.1108-29.9995.2582-4.2379-5.6064-11.2794-8.0554-14.722-1.5965,3.7278-2.7268,7.8489-4.7221,11.3887ZM254.718,307.5482c-50.499,23.7531-111.6787,41.2837-167.775,33.8883-1.2561.631,5.8339,13.5807,8.3332,14.4442,4.0856,1.4117,23.0723,1.7479,28.3329,1.6666,68.893-1.0645,194.1788-42.0861,231.9406-103.6094,1.1314-1.8434,8.2332-15.6308,8.3332-16.6664.1627-1.6858-6.8863-19.6756-8.0554-19.1663-15.1164,42.6394-61.9693,71.0327-101.1094,89.443ZM360.5496,257.8268c-39.5615,61.9362-155.4013,101.5482-225.8296,105.8316-11.6097.7061-23.1542-.1937-34.7216.2778,2.1991,2.0326,8.1619,11.6256,10.2776,12.4998,3.8718,1.5998,26.2891,1.3186,31.6661,1.1111,68.1496-2.6301,179.0582-41.046,219.7186-98.6095,1.1708-1.6576,8.2172-12.3882,8.3332-13.3331.1155-.9408-2.6894-18.3893-3.6111-18.6108-2.1808,3.4278-3.6554,7.4237-5.8332,10.8332ZM363.8828,286.7152c-41.5778,53.8845-140.7685,90.3822-206.941,96.3873-12.8377,1.165-25.7654.9154-38.6105,1.3889-.131.9567,13.6992,12.2606,14.722,12.4998,1.6937.3962,10.7991.5208,13.3331.5555,59.677.8179,166.4203-38.4693,208.8854-81.1098,2.2839-2.2933,12.8216-13.7226,13.6109-15.8331.767-2.051,2.3994-22.9965,1.3889-23.6107-2.149,3.1489-4.0667,6.7126-6.3888,9.7221ZM71.6655,288.3819c20.3899,14.2415,46.653,11.8076,69.7211,6.3888l.5555-1.1111c-22.7504-28.013-39.2356-61.9656-42.7771-98.3317-19.5892,26.6962-29.7486,59.7437-27.4995,93.054ZM186.9413,137.5511c-2.7211,1.1525-5.9991,11.4068-6.9443,14.722-11.6012,40.6881,2.8328,79.2008,26.1107,112.2204,1.8569,2.634,15.1393,20.2364,16.9442,20.2774,1.1307.0257,11.062-5.6002,13.0553-6.3888-25.8525-30.7409-46.2118-67.7598-41.1104-109.4426,1.4465-11.8191,6.8099-23.3636,10.2776-34.1661-.5529-.025-1.1156.0374-1.6666,0-.8429-.0572-15.8495,2.4317-16.6664,2.7777ZM157.7752,148.3842c-.5201.8952-2.9647,10.5039-3.3333,12.222-6.712,31.2847,1.3041,62.6946,16.6664,89.9985,3.0501,5.4211,28.3506,42.1989,31.9439,42.4993.7131.0596,12.5623-5.25,12.4998-6.3888-30.9292-36.343-53.2273-78.4573-43.8882-127.7757,1.0127-5.3477,3.9819-11.2767,4.9999-16.1108.2017-.9579.7221-1.897-.2778-2.5-3.8485,2.1655-16.563,4.5305-18.6108,8.0554ZM131.1089,163.9395c-.723,1.8047-2.0578,13.0595-2.2222,15.5553-1.9227,29.1873,7.8545,57.0903,22.7774,81.6653,3.4821,5.7343,27.3506,39.1318,32.4995,39.166.6276.0042,11.3983-4.3755,11.3887-5.2777-28.6278-32.8909-52.4835-72.3558-49.9992-117.7758l3.6111-25.8329c-3.8914,2.7789-16.4165,8.4093-18.0553,12.4998ZM106.1093,186.1614c-2.6534,9.8562,4.6499,37.5588,8.3332,47.777,9.7051,26.9238,28.0299,52.3937,47.4992,73.0543l13.6109-4.7221c-26.0879-27.4416-46.9248-61.4613-52.7769-99.4428l.2778-33.6106c-2.7089,2.6639-16.253,14.3768-16.9442,16.9442ZM208.0521,148.662c48.0401-4.402,99.0302,16.0292,123.3313,58.8879.8457-.1177,7.5625-14.0365,7.4999-15.2775-.1474-2.9227-18.6003-21.3455-21.9441-24.1663-28.0869-23.6937-66.1765-35.3402-102.7761-33.8883-1.5302,1.3476-7.9331,13.6989-6.111,14.4442ZM200.5522,175.606l.8333,15.2775c40.6936-5.7464,84.694,6.6162,107.776,42.2215.7356.1082,6.8558-5.2647,6.9443-5.8332.2637-1.694-8.8704-14.6404-10.5554-16.6664-22.3468-26.8703-60.8839-39.4422-95.2762-36.9438-2.1487.1561-9.1001.3405-9.7221,1.9444ZM204.441,156.1619c-.3771.4932-3.111,11.6251-1.9444,11.9442,46.079-6.2097,96.0996,12.5505,118.8869,54.4435.9726-.9831,6.9087-6.851,6.9443-7.4999.068-1.2385-12.0876-18.4439-13.8887-20.5552-22.8354-26.7682-70.9397-45.112-105.8316-39.7216-.9982.1542-3.5919.6374-4.1666,1.3889ZM201.6633,197.8278l5.2777,18.6108c25.6652-6.2154,58.2207-1.0755,78.332,16.6664,2.3193,2.046,8.7306,10.9618,9.4443,11.1109.6391.1335,9.0913-6.3178,9.1665-6.9443-19.4736-31.6457-58.846-43.9478-94.7206-40.8327-.9631.0836-7.3222.9732-7.4999,1.3889ZM208.8854,222.8274l8.611,17.4997c21.0186-5.0485,45.9925-2.1069,61.6656,13.8887l10.2776-6.3888c-13.9106-20.7466-43.4174-28.9486-67.4989-27.4995-1.9026.1145-12.6257,1.2567-13.0553,2.5ZM221.3852,245.8826c-1.8538,1.4335,17.8781,26.8803,20.5552,29.444l31.9439-17.4997c-11.5126-10.7231-29.2938-14.5337-44.7215-13.0553-2.5316.2426-5.1875,1.1091-7.7776,1.1111ZM74.4432,310.6037c1.3249,2.2095,18.8362,5.049,21.9441,5.2777,18.9041,1.3912,40.0518-2.1058,58.0546-7.4999-1.6678-.9102-7.0951-8.4754-8.0554-8.611-1.1545-.163-18.824,4.6001-22.7774,4.9999-16.9317,1.7122-35.8032.8994-50.5547-8.3332-1.2466.0932,1.0083,13.5318,1.3889,14.1664Z"/>
  <path class="cls-2" d="M115.2759,390.3246l23.6107,18.6108c-21.1093,23.834-41.9797,48.0042-63.8878,71.1099-3.5836,3.7794-30.3096,32.5911-32.4995,31.9439-1.3455-.3977-.521-2.6986-.2778-3.6111,1.139-4.2726,9.4922-17.4667,12.222-22.2219,18.814-32.7731,40.911-63.7416,60.8323-95.8317ZM0,436.1572c.9118,2.6608,16.6898-4.7581,19.1663-5.8332,30.684-13.3209,59.9044-30.437,89.9985-44.9993l-16.6664-20.5552L0,436.1572ZM433.8817,47.8303c-.3058,3.4278,1.755,8.454,1.6666,9.4443-.3374,3.7795-47.6692,47.0972-54.1658,53.0547-19.7196,18.0833-40.2773,35.2835-60.2768,53.0547l16.3886,16.9442c36.5991-36.9247,73.9179-73.2337,112.2204-108.3315,34.0638,7.2582,27.847-41.2121-1.1111-38.8882-7.1908.5771-14.084,7.5713-14.722,14.722ZM374.9938,21.1641c1.9896,8.9735,6.0848,3.0848,0,14.4442l-74.9988,112.7759,13.6109,9.7221,1.9444-.8333c26.5292-39.7994,52.2443-80.2886,80.832-118.6091,31.9251-2.2117,19.2666-42.7137-8.3332-38.3327-9.8016,1.5558-15.0983,11.6191-13.0553,20.833Z"/>
</svg>